C:\Users\u0088756\Documents\documenten\software\SoftwareProjects\DC_TrackingSimulation\Data\FitMuscleFunctions\dummy_motion_LeftSubtalar.mot
nRows=22
nColumns=17

name C:\Users\u0088756\Documents\documenten\software\SoftwareProjects\DC_TrackingSimulation\Data\FitMuscleFunctions\dummy_motion_LeftSubtalar.mot
datacolumns 17
datarows 22
range 37.5100000000 37.7200000000
endheader
time	first_body_list	first_body_rotation	first_body_tilt	first_body_tx	first_body_ty	first_body_tz	subtalar_angle_l	ankle_angle_l	knee_angle_l	hip_flexion_l	hip_adduction_l	hip_rotation_l	lumbar_extension	lumbar_bending	lumbar_rotation	mtp_angle_l
       37.5100000000	        0.0000000000	        0.0000000000	        0.0000000000	        0.0000000000	        0.0000000000	        0.0000000000	        5.4324243470	      -42.2776724812	      -54.7797449451	      -15.5500300131	      -13.9745430631	       38.2373281260	      -11.5366495353	       51.6370093980	       33.9746853615	        0.0000000000	
       37.5200000000	        0.0000000000	        0.0000000000	        0.0000000000	        0.0000000000	        0.0000000000	        0.0000000000	       19.6447157118	      -54.5927083800	      -61.1868665397	       32.9307321617	        9.5495704153	        3.8832481974	      -38.1514519326	        5.3776247533	       18.8212514817	        0.0000000000	
       37.5300000000	        0.0000000000	        0.0000000000	        0.0000000000	        0.0000000000	        0.0000000000	        0.0000000000	      -28.9971369460	      -45.6520418253	      -21.8620639027	      113.9390297031	      -24.1725420529	      -34.4928712458	      -12.7980076721	      -45.0144029682	       46.5638741875	        0.0000000000	
       37.5400000000	        0.0000000000	        0.0000000000	        0.0000000000	        0.0000000000	        0.0000000000	        0.0000000000	       19.4541057409	       17.4903902222	      -67.9021107402	       15.5832883495	      -23.7647066800	      -38.3385995205	       28.5621368515	      -10.3950815600	      -48.8829431527	        0.0000000000	
       37.5500000000	        0.0000000000	        0.0000000000	        0.0000000000	        0.0000000000	        0.0000000000	        0.0000000000	        9.1680988607	       -4.8864935784	      -86.3379468699	       73.6369790783	      -31.6678125640	      -13.0254076194	      -29.5607533098	       -1.1779280826	       28.3572012161	        0.0000000000	
       37.5600000000	        0.0000000000	        0.0000000000	        0.0000000000	        0.0000000000	        0.0000000000	        0.0000000000	       -9.3061839724	       -8.7725330051	      -58.9221383356	      107.7089726983	       11.5033300122	       23.6463342786	       -4.9966566087	       -4.5188680601	      -41.3961211086	        0.0000000000	
       37.5700000000	        0.0000000000	        0.0000000000	        0.0000000000	        0.0000000000	        0.0000000000	        0.0000000000	       16.7945712407	      -32.1313364999	      -75.9421822167	      112.8123543500	       -1.7435159687	       33.8287615719	        6.0210453333	       -1.9988073152	      -20.5765978498	        0.0000000000	
       37.5800000000	        0.0000000000	        0.0000000000	        0.0000000000	        0.0000000000	        0.0000000000	        0.0000000000	       25.0570356110	      -15.2920753193	       -6.2839251945	      -40.5281005271	      -26.1082437570	      -25.4434391797	      -12.2410754171	       53.0502641463	        5.1792591954	        0.0000000000	
       37.5900000000	        0.0000000000	        0.0000000000	        0.0000000000	        0.0000000000	        0.0000000000	        0.0000000000	       24.1809809831	      -53.1147821855	     -101.9639474339	        0.4447790708	      -15.3644537123	        3.6613148126	      -43.7239187613	      -58.6149854051	       16.5522471195	        0.0000000000	
       37.6000000000	        0.0000000000	        0.0000000000	        0.0000000000	        0.0000000000	        0.0000000000	        0.0000000000	        1.1787344397	      -55.7885141430	      -10.0760481977	       -9.8599821098	       -4.4885470933	       31.0581602221	      -11.1469577651	      -10.3828757728	      -11.0369692486	        0.0000000000	
       37.6100000000	        0.0000000000	        0.0000000000	        0.0000000000	        0.0000000000	        0.0000000000	        0.0000000000	      -19.0242966912	      -41.7486899541	     -102.1779896201	       21.5057137242	       -0.1750763797	       -8.3379045788	       39.0756127130	      -55.5896136948	        5.0761519299	        0.0000000000	
       37.6200000000	        0.0000000000	        0.0000000000	        0.0000000000	        0.0000000000	        0.0000000000	        0.0000000000	       21.8871865970	       34.9482606359	      -55.7656975914	      110.7358535115	      -28.4056459938	      -15.0812062334	      -54.0230729866	       35.4309059841	       18.8665740923	        0.0000000000	
       37.6300000000	        0.0000000000	        0.0000000000	        0.0000000000	        0.0000000000	        0.0000000000	        0.0000000000	      -18.0402392482	       47.4797074135	      -21.7642993522	       31.0230506744	        8.7454461849	        5.3533109018	       -4.1113143313	       -8.3306583999	        6.5925062725	        0.0000000000	
       37.6400000000	        0.0000000000	        0.0000000000	        0.0000000000	        0.0000000000	        0.0000000000	        0.0000000000	       24.4047633840	      -57.5348217460	      -48.0268460098	      -66.7950997567	      -29.1310796106	       22.2531532785	       46.0868628556	        6.9654937174	        2.4267527193	        0.0000000000	
       37.6500000000	        0.0000000000	        0.0000000000	        0.0000000000	        0.0000000000	        0.0000000000	        0.0000000000	      -23.8676814478	      -18.5223737093	      -16.8792385910	        4.4668197110	       19.2801409527	      -12.6994658286	      -28.9169465498	      -57.0249302512	      -42.4363749586	        0.0000000000	
       37.6600000000	        0.0000000000	        0.0000000000	        0.0000000000	        0.0000000000	        0.0000000000	        0.0000000000	      -12.5562503736	      -15.2215963307	      -96.6226106695	      -69.2946820923	        2.7530523274	       37.9323594243	        3.4042851083	       23.9784189585	      -37.0817265041	        0.0000000000	
       37.6700000000	        0.0000000000	        0.0000000000	        0.0000000000	        0.0000000000	        0.0000000000	        0.0000000000	      -19.5658702146	       20.0344596327	       -0.4958838777	       -1.6563707170	      -34.7854892575	       15.6387738693	      -13.3840651827	       50.9885971906	       19.1855690170	        0.0000000000	
       37.6800000000	        0.0000000000	        0.0000000000	        0.0000000000	        0.0000000000	        0.0000000000	        0.0000000000	       24.3262328417	      -21.5850253190	      -33.4956814841	       31.9766523139	       13.6487677326	       29.8698747804	       43.3114239217	      -31.1913212068	      -33.4633710762	        0.0000000000	
       37.6900000000	        0.0000000000	        0.0000000000	        0.0000000000	        0.0000000000	        0.0000000000	        0.0000000000	        5.2458328639	       51.3199113412	      -57.5780810289	      101.0672279472	      -36.7839280220	      -38.8466730771	      -45.4140926960	      -23.7521435358	       57.1080853059	        0.0000000000	
       37.7000000000	        0.0000000000	        0.0000000000	        0.0000000000	        0.0000000000	        0.0000000000	        0.0000000000	       15.9122234151	       46.6919616210	      -45.0214639593	      -22.6225729040	      -27.1787233377	      -26.2074819044	      -59.4999478622	       12.0655322667	       40.8193309547	        0.0000000000	
       37.7100000000	        0.0000000000	        0.0000000000	        0.0000000000	        0.0000000000	        0.0000000000	        0.0000000000	      -13.8243932600	      -47.7858546055	      -94.7021260867	       70.9855050744	      -10.1053767326	      -21.3880735343	      -14.7044640813	      -31.5866871591	      -39.5471546235	        0.0000000000	
       37.7200000000	        0.0000000000	        0.0000000000	        0.0000000000	        0.0000000000	        0.0000000000	        0.0000000000	      -21.6883645783	       49.2760447249	      -97.6722671635	      110.7693302206	        8.7233922023	        0.6557806862	       32.6370054629	      -28.6152535434	       53.8464508187	        0.0000000000	
